<svg width="158" height="56" viewBox="0 0 158 56" fill="none" xmlns="http://www.w3.org/2000/svg">
<path d="M35.6707 0.50402V12.4152H11.1707V28.0048H30.5346V39.9086H11.1707V55.4982H0V0.50402H35.6707Z" fill="#ACA100"/>
<path d="M147.816 55.4997C152.91 55.4997 157.039 51.0986 157.039 45.6695C157.039 40.2404 152.91 35.8392 147.816 35.8392C142.721 35.8392 138.592 40.2404 138.592 45.6695C138.592 51.0986 142.721 55.4997 147.816 55.4997Z" fill="#ACA100"/>
<path d="M38.0912 55.5H49.2646L49.2646 0.502911H38.0912L38.0912 55.5Z" fill="#ACA100"/>
<path d="M91.0049 55.4986H102.955L116.546 17.2919L130.138 55.4986H142.088L122.522 0.5H110.576L91.0049 55.4986Z" fill="#ACA100"/>
<path d="M84.6916 0.501465V41.8888L69.9677 0.5L51.6865 0.501465V55.4986H62.86V14.1098L77.5839 55.4986H95.865V0.501465H84.6916Z" fill="#ACA100"/>
</svg>
